<svg aria-hidden="true" style="position: absolute; width: 0; height: 0; overflow: hidden;" version="1.1" xmlns="http://www.w3.org/2000/svg" xmlns:xlink="http://www.w3.org/1999/xlink">
<defs>
<symbol id="icon-a" viewBox="0 0 32 32">
<path d="M15.337 18.414h-5.334l5.334-14.513 5.334 14.513h-5.334zM18.568 0.002h-6.463l-11.904 30.424h5.597l2.755-7.649h13.568l2.754 7.649h5.597l-11.904-30.424z"></path>
</symbol>
<symbol id="icon-d" viewBox="0 0 28 32">
<path d="M11.368 25.436h-6.066v-20.52l6.066-0.013c9.292 0 10.464 6.514 10.464 10.31s-1.172 10.223-10.464 10.223zM11.368 0.002h-11.239v30.424h11.239c9.134 0 15.651-6.257 15.651-15.212s-6.517-15.212-15.651-15.212z"></path>
</symbol>
<symbol id="icon-e" viewBox="0 0 26 32">
<path d="M24.025 4.914v-4.912h-23.212v30.424h23.212v-4.912h-18.056v-7.958h15.952v-4.684h-15.952v-7.958h18.056z"></path>
</symbol>
<symbol id="icon-l" viewBox="0 0 24 32">
<path d="M0.113 0.002v30.424h23.274v-4.913h-18.059v-25.511h-5.215z"></path>
</symbol>
<symbol id="icon-n" viewBox="0 0 26 32">
<path d="M5.682 0.002h-5.14v30.424h5.14v-25.266l15.177 25.266h5.139v-30.424h-5.216v21.011l-12.631-21.011h-2.47z"></path>
</symbol>
<symbol id="icon-w" viewBox="0 0 42 32">
<path d="M35.099 0.002l-5.45 24.807-6.079-24.807h-6.433l-6.079 24.807-5.45-24.807h-5.608l7.7 30.424h6.543l6.111-24.808 6.111 24.808h6.543l7.7-30.424h-5.608z"></path>
</symbol>
</defs>
</svg>
